<svg width="58" height="24" viewBox="0 0 507 212"
	xmlns="http://www.w3.org/2000/svg">
	<path fill="var(--color-on-bg)" fill-rule="evenodd" d="M480 106.1C492 97.9 502.7 88.7 507 74V73.9973C507 70.9982 507 67.9991 506.9 65.1C503.4 55.4 495.8 51.4 486.1 51.1C480.52 50.8895 474.913 50.956 469.308 51.0224C464.263 51.0823 459.22 51.1421 454.2 51C449 50.8 443.6 50.2 438.5 49C431.2 47.2 428.5 41.7 430.5 34.5C432.3 27.9 436.4 22.8 441.9 19.2C445.133 17.1009 448.528 15.2593 451.919 13.4195C454.506 12.0164 457.09 10.6144 459.6 9.10001C460.862 8.30266 461.904 7.10797 462.959 5.89729L462.96 5.89692C463.493 5.28565 464.029 4.67032 464.6 4.10001C463.85 3.40001 463.075 2.725 462.3 2.05C461.525 1.375 460.75 0.7 460 0H454C452.595 0.68885 451.177 1.37068 449.754 2.05479C445.806 3.95279 441.822 5.86833 438 8C428.8 13.1 420.1 19 414 27.9C404 42.6 410.2 57.7 427.7 59.9C434.901 60.8695 442.151 60.9758 449.416 61.0823C452.642 61.1296 455.871 61.177 459.1 61.3C460.629 61.3501 462.165 61.3814 463.704 61.4128L463.705 61.4128L463.705 61.4128L463.705 61.4128L463.706 61.4128C468.304 61.5065 472.93 61.6007 477.5 62.2C487.4 63.5 491.8 72.6 486.6 81.1C484.1 85.1 480.9 89.2 477 91.7C476.351 92.116 475.701 92.5326 475.052 92.9495L475.051 92.9497C463.988 100.049 452.801 107.227 440.9 112.8C401 131.5 359 144.3 316.6 155.9C314.4 156.5 312 157.2 310.2 158.5C308.9 159.4 307.7 161.7 308 163C308.3 164.3 310.4 165.9 311.8 166.1C314.5 166.4 317.4 166.1 320.1 165.5C354 157.4 387.1 146.9 419.6 134.4C420.757 133.955 421.914 133.511 423.071 133.067C442.718 125.528 462.34 117.999 480 106.1ZM49.4001 204.7C49.0001 207.9 49.3001 210.2 52.0001 212H59.9001C65.3001 209.8 69.1001 206.9 69.7001 200C71.0017 186.225 72.5091 172.48 74.015 158.748L74.0151 158.747C75.2861 147.159 76.5559 135.579 77.7001 124C78.1001 120.2 79.3001 118.9 82.7001 118.1C100.5 113.9 118.3 109.5 136 105C138.3 104.4 140.7 103.4 142.7 102C143.8 101.2 144.9 99 144.6 97.8C144.3 96.6 142.5 94.9 141.2 94.8C138.3 94.6 135.2 94.7 132.4 95.4C121.051 98.099 109.749 100.894 98.462 103.685C93.4394 104.927 88.4198 106.168 83.4001 107.4C82.6214 107.567 81.8427 107.672 81.0124 107.784C80.3499 107.873 79.6546 107.967 78.9001 108.1C79.0586 105.379 79.2102 102.693 79.3602 100.033L79.3603 100.031L79.3603 100.031L79.3604 100.031C79.7784 92.621 80.1851 85.4105 80.7001 78.2C80.711 78.0332 80.7223 77.8663 80.7336 77.6996C81.0329 73.2708 81.3244 68.9565 74.0001 67.8C74.903 67.5379 75.6786 67.3097 76.364 67.1081L76.371 67.106L76.3723 67.1056C78.0358 66.6161 79.168 66.2831 80.3001 66C94.8507 62.1999 109.426 58.3997 124.002 54.5996C138.576 50.7997 153.151 46.9999 167.7 43.2C167.938 43.1374 168.182 43.0748 168.429 43.0113C172.138 42.0588 176.725 40.8808 175.6 36.1C174.4 30.9 169 32.4 165.4 33.4C113.303 47.0992 61.2059 60.8985 9.1088 74.6977L9.10706 74.6982L9.10532 74.6987L9.10358 74.6991L9.10184 74.6996L9.1001 74.7C6.7001 75.3 4.40012 76.5 2.50012 78C1.40012 78.8 0.600122 81.1 1.00012 82.3C1.30012 83.5 3.2001 84.9 4.6001 85C7.0001 85.3 9.60012 85 12.0001 84.4C19.1133 82.5417 26.1853 80.6011 33.2689 78.6574L33.2694 78.6573L33.2698 78.6572L33.2703 78.6571L33.2706 78.657C37.2404 77.5677 41.2138 76.4774 45.2001 75.4C49.7731 74.1599 54.3461 72.9798 58.6863 71.8598C59.9458 71.5348 61.1856 71.2149 62.4001 70.9C62.2167 72.0742 61.9928 73.2079 61.773 74.3211L61.773 74.3211L61.773 74.3212L61.773 74.3213C61.3938 76.2418 61.0268 78.1009 60.9001 80C60.5641 85.1756 60.3183 90.306 60.0719 95.4519L60.0719 95.4524L60.0718 95.4537C59.9516 97.9631 59.8312 100.476 59.7001 103C59.1059 113.299 59.1002 113.301 49.2906 116.019L49.0001 116.1C48.1001 116.3 47.1001 116.6 46.2001 117C43.5001 118.2 39.9001 119.8 41.4001 123.2C42.2001 125 46.2001 126 48.8001 126.2C50.8725 126.343 53.0471 125.822 55.2508 125.294L55.2514 125.294L55.2514 125.294C56.1312 125.083 57.0157 124.871 57.9001 124.7C57.9001 125.429 57.9134 126.064 57.9255 126.641C57.9465 127.647 57.9637 128.474 57.9001 129.3C57.1636 135.902 56.434 142.512 55.7041 149.124L55.704 149.125L55.7039 149.125L55.7039 149.126L55.7038 149.127L55.7037 149.128C53.6587 167.653 51.6109 186.204 49.4001 204.7ZM183.2 136.5C183.7 142.3 184.1 146.6 184.6 150.9C185.4 157.5 184.1 160 177.6 162C175 162.8 172 163.3 169.3 162.9C167.7 162.7 165.3 160.5 165.2 159.1C164 140 163 120.9 162.2 101.7C162.1 99.8999 164 97.1 165.7 96.4C168.9 95 172.6 94.2999 176.2 93.9999C179.9 93.6999 182.1 95.6999 181.9 99.7999C181.769 102.296 181.81 104.835 181.854 107.531C181.877 108.939 181.9 110.39 181.9 111.9C183.2 111.1 184.1 110.6 185 110.1C187.998 108.524 191.011 106.978 194.021 105.433C198.843 102.958 203.66 100.486 208.4 97.9C209.52 97.2829 210.666 96.6868 211.815 96.0889L211.816 96.0888C215.695 94.0703 219.615 92.0315 222.7 89.0999C228.7 83.5999 227.1 77.8999 219.4 75.0999C211.6 72.2999 203.5 71.8999 195.8 74.5999C190.57 76.4961 185.51 79.0335 180.453 81.5693C177.776 82.9118 175.1 84.2538 172.4 85.4999C171.435 85.9433 170.47 86.4276 169.502 86.9136C166.757 88.2909 163.983 89.6825 161.1 90.1999C159.682 90.4702 157.989 89.4168 156.3 88.3658C155.489 87.861 154.679 87.3568 153.9 86.9999C154.292 86.4126 154.63 85.7614 154.967 85.1123L154.968 85.1122L154.968 85.1118C155.664 83.7718 156.355 82.4409 157.5 81.6999C178.9 66.1999 202.4 58.7999 229 63.8999C232.4 64.5999 235.8 65.6999 238.9 67.1999C246.9 71.0999 249.3 77.8999 244.4 85.2999C241.2 90.0999 236.6 94.4999 231.7 97.5999C226.34 100.96 220.469 103.552 214.597 106.144L214.596 106.144C213.128 106.792 211.66 107.44 210.2 108.1C195.4 114.8 194.1 122.4 206.3 133.3C215.8 141.8 227.4 145 239.8 145.8C256.3 146.9 272.3 144 288 138.9C291.2 137.9 294.8 137.7 298.2 137.9C299.35 137.968 300.409 138.996 301.469 140.026C301.976 140.519 302.483 141.012 303 141.4C302.592 141.84 302.213 142.349 301.835 142.856C301.012 143.962 300.197 145.057 299.1 145.4C290.6 148.2 282 151 273.3 153.1C257.8 156.8 242.1 158.3 226.2 156.7C210 155.3 195.3 150.3 183.2 136.5ZM288.4 47.3C285.1 48.5 282.5 50.6 283.4 55C282.575 55.0868 281.864 55.1359 281.224 55.18C280.39 55.2376 279.679 55.2868 279 55.4C278.575 55.4831 278.146 55.5627 277.715 55.6427L277.715 55.6429L277.714 55.643C273.481 56.4292 269.096 57.2437 267.1 61.6C260.7 75.4 256.5 89.7 258.2 105.1C259.9 120.1 269.7 127.5 284.1 124.9C308.8 120.5 328.3 95 326.2 70C324.4 49 305.9 41 288.4 47.3ZM284.505 65.4316C285.255 62.6383 286.007 59.834 286.7 57C287.019 56.9812 287.303 56.9659 287.559 56.9522C288.663 56.8929 289.231 56.8624 289.8 56.7C300.2 55.6 302.9 57.6 305.1 67.9C307.8 80.4 305.9 92.2 298.7 102.7C296.5 106 293 108.9 289.5 110.7C284.6 113.3 280.5 111.4 279.9 105.9C279.1 98.6 279.2 91 280.3 83.7C281.259 77.534 282.875 71.5089 284.505 65.4316ZM336.851 68.3772L336.87 68.1638C337.617 60.0689 338.488 50.6345 339.2 41.2C339.5 37 341.7 34.5 345.5 33.1C350.35 31.2 355.2 29.275 360.05 27.35C364.9 25.425 369.75 23.5 374.6 21.6C380.5 19.3 386.4 17 392.3 14.8C392.494 14.7319 392.69 14.6628 392.886 14.5934C394.708 13.95 396.604 13.2805 398.5 13.1C398.747 13.0761 399.001 13.049 399.26 13.0214C402.247 12.7029 405.848 12.319 406.4 16C406.7 17.8 403.6 21.2 401.3 22.2C392.594 25.8048 383.842 29.132 375.075 32.4648L375.074 32.465C370.951 34.0323 366.826 35.6008 362.7 37.2C361.3 37.8 359.3 39.1 359.1 40.3C359.063 40.5456 359.026 40.7912 358.989 41.0369L358.838 42.0387C356.817 55.4595 354.795 68.8878 357 82.5C357.3 84.6 357.8 86.8 358.6 88.8C360.8 94.4 364.8 96.4 370.6 94.4C380.6 90.9 387.8 83.7 393.9 75.4C398.4 69.3 404.4 68.4 411.2 69C414.2 69.3 415.6 71.2 413.8 73.8C400.4 92.8 383.7 106.9 358.9 107.1C346 107.2 339.4 101.2 337.7 88.6C337.158 85.0818 337.029 81.5636 336.878 77.457V77.4566C336.806 75.4936 336.729 73.3962 336.6 71.1C336.681 70.2116 336.765 69.3033 336.851 68.3772ZM364.003 69.1212C364.437 69.3343 364.823 69.5236 365.1 69.7001C365.95 69.5893 366.649 69.5331 367.233 69.4861C368.232 69.4058 368.896 69.3524 369.4 69.1001C371.303 67.9442 373.209 66.7915 375.115 65.6386C383.929 60.3081 392.75 54.9731 401.3 49.3001C404 47.5001 402.5 43.5001 398.8 43.4001C395 43.3001 390.6 43.8001 387.4 45.6001C379.2 50.2001 371.4 55.6001 363.6 61.0001C362 62.1001 359.9 65.2001 360.4 66.3001C360.999 67.6462 362.715 68.489 364.003 69.1212Z"/>
</svg>
